<?xml version="1.0" standalone="no"?>
<!DOCTYPE svg PUBLIC "-//W3C//DTD SVG 20010904//EN"
 "http://www.w3.org/TR/2001/REC-SVG-20010904/DTD/svg10.dtd">
<svg version="1.0" xmlns="http://www.w3.org/2000/svg"
 width="229.000000pt" height="220.000000pt" viewBox="0 0 229.000000 220.000000"
 preserveAspectRatio="xMidYMid meet">

<g transform="translate(0.000000,220.000000) scale(0.100000,-0.100000)"
fill="#000000" stroke="none">
<path d="M1230 2191 c0 -6 -12 -16 -27 -23 -31 -15 -85 -108 -67 -115 6 -2 9
-15 6 -28 -2 -14 1 -32 8 -41 11 -13 6 -22 -36 -59 -27 -24 -57 -44 -66 -45
-10 0 -15 -6 -12 -13 7 -19 -17 -45 -48 -53 -37 -8 -35 7 2 34 26 20 70 91 70
114 0 4 -8 8 -19 8 -17 0 -91 -73 -183 -181 l-36 -43 -31 49 c-36 57 -101 105
-143 105 -17 0 -27 4 -23 10 8 13 51 13 76 0 10 -6 19 -7 19 -2 0 11 -29 26
-115 58 -61 22 -74 24 -105 14 -29 -9 -130 -87 -118 -91 1 -1 35 -3 73 -5 39
-2 86 -10 105 -18 19 -8 48 -19 64 -23 27 -8 28 -10 12 -26 -13 -12 -34 -17
-77 -17 -52 0 -119 -20 -119 -35 0 -3 31 -19 70 -36 51 -23 75 -40 89 -65 11
-19 27 -34 35 -34 22 0 76 -68 76 -96 0 -14 -4 -22 -10 -19 -5 3 -10 12 -10
19 0 13 -51 66 -63 66 -13 0 -7 -49 7 -57 40 -24 49 -128 16 -193 -24 -47 -24
-50 -6 -50 8 0 25 15 37 33 13 17 36 46 51 62 67 72 37 209 -59 269 -53 34
-56 52 -5 31 54 -22 96 -75 112 -140 13 -54 31 -75 62 -75 15 0 47 84 58 155
8 51 28 105 39 105 10 0 36 -20 27 -20 -6 0 3 -13 18 -29 32 -34 27 -51 -15
-51 -26 0 -29 -4 -31 -32 0 -18 0 -45 1 -59 2 -21 -6 -31 -35 -48 -34 -20 -36
-24 -31 -59 5 -25 3 -32 -3 -22 -5 8 -10 11 -10 6 0 -6 -7 -1 -15 10 -14 18
-14 18 -15 -9 0 -20 6 -30 23 -36 14 -5 25 -4 29 3 4 6 8 -4 8 -22 0 -22 -8
-41 -26 -59 l-25 -25 -21 22 c-19 20 -21 20 -39 4 -20 -18 -17 -34 7 -34 8 0
14 -4 14 -10 0 -5 -5 -10 -12 -10 -6 0 -9 -3 -5 -6 8 -8 -47 -54 -64 -54 -8 0
-28 -16 -44 -36 -17 -20 -46 -44 -66 -54 -19 -10 -41 -26 -48 -34 -23 -27 -38
-18 -58 36 -15 42 -23 52 -38 51 -11 -2 -76 -5 -145 -6 -69 -2 -133 -7 -143
-12 -10 -4 -17 -3 -17 3 0 6 8 13 18 15 9 2 4 3 -12 1 -16 -2 -59 -4 -97 -4
l-69 0 0 -396 0 -396 58 7 c31 4 60 9 64 11 4 3 24 32 43 65 20 34 41 67 48
74 6 8 22 31 35 52 24 39 74 74 151 106 34 14 80 19 195 22 83 2 165 9 181 15
17 6 50 11 75 9 79 -3 110 1 110 14 0 13 36 31 82 43 27 6 154 -19 190 -37 32
-17 59 -74 52 -110 -8 -40 -73 -109 -102 -109 -11 0 -22 -4 -24 -10 -1 -5 -12
-11 -23 -12 -11 -2 -31 -11 -45 -21 -13 -9 -30 -17 -37 -17 -18 0 -26 -19 -15
-33 6 -7 11 -23 11 -37 0 -14 3 -44 7 -67 4 -30 2 -43 -6 -43 -7 0 -5 -7 5
-17 14 -14 18 -14 26 -2 6 9 9 -10 9 -53 0 -59 -3 -69 -21 -79 -12 -6 -17 -14
-12 -18 6 -3 13 -32 17 -63 l7 -58 234 0 c228 0 234 1 249 22 17 24 11 42 -10
34 -8 -3 -14 1 -14 10 0 8 6 17 14 20 8 3 23 26 33 50 10 24 26 47 36 50 9 3
23 20 31 37 7 18 29 50 49 72 134 153 121 127 146 276 23 136 25 148 60 279
57 220 101 237 101 41 0 -58 5 -124 11 -146 6 -22 14 -101 18 -175 7 -109 14
-155 41 -242 l33 -107 56 -3 c44 -2 57 -7 59 -20 2 -11 -5 -21 -20 -27 -38
-14 -68 -57 -68 -96 0 -25 4 -35 16 -35 10 0 14 -6 10 -15 -8 -22 17 -18 32 5
6 11 30 29 52 40 l40 20 0 1055 0 1055 -76 0 -76 0 7 -52 c19 -137 2 -184 -29
-80 -32 105 -36 112 -65 111 -14 0 -46 -8 -71 -17 l-44 -17 -3 -75 c-6 -179
-20 -208 -78 -169 -19 13 -35 32 -35 42 0 15 -2 15 -21 -4 -13 -13 -18 -27
-13 -41 5 -16 8 -18 15 -7 13 21 22 4 30 -56 4 -30 17 -68 29 -85 30 -42 15
-65 -24 -35 -15 11 -16 18 -8 28 9 11 5 20 -17 41 -22 21 -31 42 -36 78 -7 47
-8 48 -24 30 -12 -15 -36 -21 -97 -27 -97 -8 -94 -13 -94 136 0 62 -6 115 -17
148 l-16 51 -84 0 c-49 0 -83 -4 -83 -10 0 -5 -7 -10 -15 -10 -8 0 -24 -9 -35
-20 -11 -11 -24 -20 -29 -20 -5 0 -7 9 -4 20 3 11 9 20 14 20 5 0 9 5 9 10 0
6 -16 10 -35 10 -19 0 -35 -4 -35 -9z m4 -108 c-19 -25 -34 -49 -34 -54 0 -5
-9 -9 -20 -9 -24 0 -27 15 -4 24 8 3 13 10 10 14 -3 5 4 18 14 30 11 12 20 26
20 31 0 6 8 14 17 20 33 18 31 -11 -3 -56z m-34 48 c0 -5 -7 -12 -16 -15 -14
-5 -15 -4 -4 9 14 17 20 19 20 6z m-459 -326 c35 -23 59 -57 59 -85 0 -5 -25
16 -55 47 -30 31 -55 58 -55 60 0 7 13 1 51 -22z m-52 -59 c1 -4 -7 -5 -16 -1
-10 4 -35 9 -55 12 -42 6 -52 23 -13 23 14 0 25 5 25 11 0 12 59 -32 59 -45z
m331 -6 c0 -21 -24 -28 -35 -10 -8 14 3 30 21 30 8 0 14 -9 14 -20z m800 -75
c15 -18 5 -35 -20 -35 -22 0 -34 15 -26 35 7 19 30 19 46 0z m-379 -51 c10 -9
15 -22 13 -29 -4 -11 -13 -9 -40 7 -34 20 -37 38 -7 38 9 0 24 -7 34 -16z
m458 -28 c25 -41 26 -44 4 -42 -15 1 -18 -9 -19 -59 -3 -82 -8 -93 -50 -93
-34 0 -35 1 -15 15 17 11 20 22 17 58 -4 54 -17 71 -57 79 -36 7 -31 21 10 29
17 4 35 15 41 27 16 30 46 24 69 -14z m118 -301 c14 -29 14 -40 3 -79 -14 -52
-27 -59 -36 -18 -3 15 -13 49 -21 75 -8 26 -12 55 -9 63 9 23 43 0 63 -41z
m-717 -36 c19 -5 69 -9 111 -9 75 0 76 -1 117 -40 23 -21 42 -43 42 -47 0 -15
-41 -85 -82 -140 -62 -85 -142 -110 -256 -81 -59 14 -108 46 -122 78 -23 50
-39 106 -38 135 0 17 -6 47 -15 68 -17 38 -9 48 17 22 20 -21 37 -19 75 9 34
25 69 26 151 5z"/>
<path d="M136 1933 c-3 -3 -6 -18 -6 -32 0 -34 -25 -103 -33 -94 -4 3 -7 21
-7 40 0 21 -5 33 -14 33 -15 0 -26 -29 -26 -69 0 -13 -7 -29 -16 -35 -14 -11
-14 -16 -1 -49 9 -20 43 -65 76 -101 34 -36 61 -75 61 -86 0 -11 4 -20 9 -20
5 0 12 -18 16 -40 4 -22 12 -40 19 -40 7 0 21 -7 32 -15 18 -13 15 -14 -28
-15 -40 0 -48 3 -48 18 0 11 -8 18 -21 19 -12 1 -47 15 -78 30 -31 15 -59 30
-63 31 -5 2 -8 -73 -8 -167 0 -111 4 -171 10 -171 6 0 21 7 33 15 21 13 161
47 197 47 8 0 29 4 47 9 24 8 37 7 55 -5 17 -11 33 -13 61 -6 45 10 54 17 41
30 -6 6 -22 6 -44 0 -19 -6 -38 -10 -42 -10 -17 0 -6 30 17 48 14 11 25 25 25
31 0 7 7 14 15 17 8 4 15 12 15 19 0 6 12 23 28 36 22 20 28 34 30 80 2 34 -1
59 -7 63 -6 4 -11 16 -11 26 0 11 -14 34 -31 51 -20 20 -29 38 -26 50 6 22 -3
25 -21 7 -16 -16 -15 -67 3 -98 22 -39 18 -66 -16 -94 -31 -26 -73 -34 -84
-16 -3 6 1 10 11 10 22 0 84 39 84 53 0 6 -12 23 -26 38 -14 15 -29 42 -33 60
-8 38 -27 49 -36 20 -12 -40 -47 -14 -66 49 -15 51 -3 80 62 149 28 29 48 56
45 59 -3 3 -15 -3 -26 -13 -13 -11 -27 -15 -44 -11 -15 4 -26 1 -29 -7 -4 -7
-6 -6 -6 4 -1 22 -30 33 -47 18 -16 -13 -37 -2 -30 17 6 15 -7 27 -18 17z m95
-317 c13 -12 43 -33 66 -46 47 -26 47 -45 1 -36 -78 15 -145 110 -117 164 l14
25 6 -42 c3 -27 15 -51 30 -65z m229 -98 c0 -18 -2 -20 -9 -8 -6 8 -7 18 -5
22 9 14 14 9 14 -14z m-163 -154 c-16 -9 -54 -17 -85 -20 -55 -3 -56 -3 -15 6
24 5 51 14 60 19 10 6 29 10 43 10 l25 0 -28 -15z m87 -19 c-18 -13 -34 -11
-34 3 0 11 45 28 49 19 1 -5 -5 -14 -15 -22z"/>
<path d="M1 1804 c0 -11 3 -14 6 -6 3 7 2 16 -1 19 -3 4 -6 -2 -5 -13z"/>
<path d="M359 1739 c-11 -11 -18 -23 -15 -26 7 -8 56 25 56 37 0 16 -19 11
-41 -11z"/>
<path d="M823 1355 c-3 -9 -3 -18 0 -21 9 -9 27 6 27 22 0 19 -19 18 -27 -1z"/>
<path d="M865 1360 c-3 -5 -1 -10 4 -10 6 0 11 5 11 10 0 6 -2 10 -4 10 -3 0
-8 -4 -11 -10z"/>
</g>
</svg>
